<svg version="1.1" id="Layer_1" xmlns="http://www.w3.org/2000/svg" xmlns:xlink="http://www.w3.org/1999/xlink" x="0px" y="0px"
	 width="25px" height="25px" viewBox="0 0 500 499" enable-background="new 0 0 500 499" xml:space="preserve">
<!-- <path fill="#000000" opacity="1.000000" stroke="none" 
	d="
M270.000000,500.000000 
	C181.333359,500.000000 93.166672,499.974548 5.000195,500.095856 
	C1.576088,500.100555 0.903030,499.423828 0.905300,496.000000 
	C1.013791,332.333435 1.013786,168.666794 0.905334,5.000245 
	C0.903065,1.576939 1.575800,0.903021 4.999878,0.905286 
	C168.999756,1.013775 332.999725,1.013761 496.999634,0.905353 
	C500.422668,0.903090 501.097015,1.575432 501.094727,4.999760 
	C500.986206,168.666306 500.986206,332.332947 501.094635,495.999512 
	C501.096893,499.422272 500.425598,500.101959 497.000275,500.096252 
	C421.500336,499.970245 346.000153,500.000000 270.000000,500.000000 
z"/> -->
<path fill="#D84339" opacity="1.000000" stroke="none" 
	d="
M195.053162,163.059402 
	C197.884445,154.128860 201.094269,145.713593 203.315079,137.044952 
	C205.264053,129.437332 203.907272,121.719452 202.049011,114.109100 
	C198.938797,101.371620 195.564713,88.651161 195.951553,75.349571 
	C195.962555,74.972076 195.558884,74.582512 194.232300,74.208649 
	C194.232300,79.628601 193.497910,85.171204 194.378448,90.444107 
	C196.499344,103.144447 199.523392,115.691254 201.872864,128.357529 
	C202.763809,133.160690 200.690201,137.757965 199.285049,142.264603 
	C194.671219,157.062225 189.113327,171.586807 186.485641,186.947922 
	C185.243835,194.207489 184.078140,201.482208 183.041168,208.773285 
	C182.764969,210.715210 182.186096,212.073898 180.093521,211.955109 
	C173.662903,211.590012 167.213333,212.750748 160.760178,211.197449 
	C158.300949,210.605515 157.976730,209.685349 157.975479,207.628326 
	C157.969559,197.879120 158.814850,188.198807 159.896194,178.518723 
	C160.444794,173.607635 160.563950,168.603226 160.731781,163.703934 
	C161.009689,155.591110 161.792984,147.507690 162.167664,139.410339 
	C162.921005,123.130013 164.771255,106.903503 165.871902,90.634689 
	C166.306686,84.208221 166.181824,77.759827 166.940262,71.322800 
	C168.760376,55.874691 169.998032,40.343212 177.886200,26.362551 
	C180.706696,21.363634 183.655411,17.723597 190.219849,16.596586 
	C198.827805,15.118738 207.088287,14.965114 215.529495,16.712671 
	C216.972687,17.011448 218.497757,16.988045 219.985107,16.989202 
	C240.982758,17.005535 261.980774,17.060675 282.977814,16.948484 
	C287.077911,16.926579 291.333435,16.809874 295.238800,15.729914 
	C302.829559,13.630813 310.006653,16.294807 317.130310,17.484974 
	C320.679718,18.077982 323.334015,22.748373 325.286377,26.630262 
	C331.107452,38.204296 333.865784,50.549339 335.002411,63.344513 
	C336.313354,78.101906 337.699188,92.853004 338.924042,107.617493 
	C339.346893,112.714584 339.366364,117.827560 339.812317,122.947235 
	C340.973114,136.273438 341.183563,149.679169 342.044708,163.035675 
	C342.839752,175.366287 344.029785,187.671021 344.948303,199.994415 
	C345.163544,202.882645 344.923340,205.802109 345.012146,208.703537 
	C345.065521,210.448914 344.190277,210.677841 342.672852,211.090408 
	C336.108307,212.875275 329.463989,211.693024 322.867615,211.926056 
	C320.041290,212.025894 319.260498,209.471802 319.111877,207.474014 
	C317.950867,191.867401 314.509430,176.730850 309.963440,161.823074 
	C307.872192,154.965149 305.753235,148.086441 303.096130,141.437210 
	C299.231384,131.765930 301.519409,122.347404 303.571136,112.908020 
	C306.112427,101.216179 309.608337,89.684219 308.959595,77.523033 
	C308.893097,76.276169 309.883972,74.069374 307.351501,74.175529 
	C305.322388,74.260597 305.968201,76.202026 306.048676,77.323257 
	C307.044128,91.193367 303.183136,104.340324 299.949554,117.538864 
	C297.607086,127.100014 298.314514,136.059540 301.844116,145.315140 
	C308.421753,162.563217 313.136749,180.410355 315.735168,198.710342 
	C318.225159,216.246628 318.868439,233.813278 316.307404,251.492493 
	C312.980865,274.456207 304.804810,296.020691 297.859039,317.928070 
	C290.892273,339.901947 282.895477,361.522461 271.987732,381.927246 
	C270.305786,385.073608 268.394165,388.109467 266.423248,391.086853 
	C259.697296,401.247742 242.349503,400.574158 235.799377,389.952179 
	C226.366348,374.655243 219.504639,358.301819 213.308334,341.597626 
	C204.678146,318.332062 197.452530,294.594299 190.417740,270.812042 
	C187.675995,261.543152 186.456360,251.948013 185.826859,242.224609 
	C185.387985,235.445526 184.664932,228.664398 185.072815,221.906784 
	C186.269287,202.083923 188.535355,182.407715 195.053162,163.059402 
z"/>
<path fill="#D84339" opacity="1.000000" stroke="none" 
	d="
M235.769348,425.748016 
	C244.123917,418.668457 253.091888,417.310883 263.147156,420.527130 
	C279.387665,425.721893 285.473999,447.847076 274.708466,460.782501 
	C263.612579,474.114929 247.511765,474.394318 235.699814,463.916748 
	C224.840912,454.284546 225.163986,436.345917 235.769348,425.748016 
z"/>
</svg>