<svg version="1.1" id="Layer_1" xmlns="http://www.w3.org/2000/svg" xmlns:xlink="http://www.w3.org/1999/xlink" x="0px" y="0px"
	 width="100%" viewBox="0 0 2118 2117" enable-background="new 0 0 2118 2117" xml:space="preserve">
<path fill="#FFFFFF" opacity="1.000000" stroke="none" 
	d="
M1114.000000,2120.000000 
	C742.710266,2120.000000 372.420532,2120.000000 2.065393,2120.000000 
	C2.065393,1414.126709 2.065393,708.253418 2.065393,2.190058 
	C707.790161,2.190058 1413.580322,2.190058 2119.685303,2.190058 
	C2119.685303,707.999878 2119.685303,1413.999878 2119.685303,2120.000000 
	C1784.919312,2120.000000 1449.959595,2120.000000 1114.000000,2120.000000 
M813.993164,685.026306 
	C824.631592,652.130127 835.207886,619.213684 845.942261,586.348877 
	C849.687073,574.883423 852.736572,563.232666 851.561462,551.160645 
	C849.798157,533.044983 848.221497,514.816040 844.777466,496.980469 
	C838.988037,466.999420 831.710449,437.307770 825.213684,407.460663 
	C819.180908,379.745239 816.707520,351.682861 817.723022,323.332458 
	C817.861267,319.472534 818.463562,315.629211 818.847351,311.814270 
	C824.408813,311.814270 828.883118,311.814270 833.681885,311.814270 
	C833.681885,323.654572 833.781555,334.841553 833.661743,346.026184 
	C833.389343,371.454620 838.133850,396.224060 843.347412,420.932770 
	C850.538879,455.015045 858.092468,489.024475 864.905640,523.181824 
	C869.396179,545.694519 867.836792,567.757080 860.282776,589.872253 
	C846.428162,630.433411 833.407715,671.301636 821.054260,712.347290 
	C808.210083,755.023254 800.634521,798.885254 793.938293,842.908020 
	C787.931335,882.398621 785.732666,922.153503 785.948425,961.983337 
	C786.097473,989.507690 788.019348,1017.042847 789.782837,1044.532471 
	C791.657227,1073.751343 795.905457,1102.789185 804.187683,1130.827148 
	C824.506104,1199.611816 844.954590,1268.385864 867.140991,1336.581787 
	C884.099182,1388.707520 903.196472,1440.167236 922.460876,1491.503418 
	C938.585632,1534.472778 957.127869,1576.473389 979.405212,1616.703247 
	C990.381958,1636.525635 1002.135010,1655.806641 1018.657471,1671.693481 
	C1027.955566,1680.633789 1038.719604,1685.611694 1051.865967,1685.209351 
	C1061.189575,1684.923950 1070.534912,1684.945190 1079.859863,1685.208252 
	C1090.859131,1685.518555 1100.362549,1681.776245 1107.776489,1674.050903 
	C1116.035156,1665.444946 1124.111572,1656.495239 1131.049438,1646.821655 
	C1151.905640,1617.741089 1167.031616,1585.434814 1181.389648,1552.869751 
	C1205.804321,1497.495728 1227.491089,1441.006470 1246.211914,1383.464355 
	C1269.115601,1313.065308 1291.263428,1242.417969 1313.360229,1171.759888 
	C1321.885498,1144.499146 1329.344482,1116.937744 1334.152588,1088.680542 
	C1340.465942,1051.577026 1342.119629,1014.100159 1343.438477,976.645264 
	C1344.197632,955.087769 1343.472900,933.367371 1341.714478,911.859497 
	C1339.473999,884.454773 1336.004028,857.121826 1332.181519,829.881836 
	C1326.173584,787.069397 1317.549316,744.746765 1304.650635,703.434021 
	C1292.380005,664.133179 1279.680908,624.963318 1266.805542,585.855896 
	C1263.027344,574.379822 1259.930054,562.479492 1260.764160,550.815735 
	C1262.178345,531.042603 1265.406982,511.304810 1269.240479,491.821167 
	C1275.199097,461.536377 1282.652222,431.547943 1288.810791,401.299316 
	C1293.587158,377.839478 1295.966431,354.034119 1295.627197,330.042419 
	C1295.544678,324.203461 1294.778809,318.374146 1294.271240,311.817993 
	C1299.714722,311.817993 1304.177490,311.817993 1310.035034,311.817993 
	C1309.210815,323.348877 1311.015015,334.257629 1310.673340,345.578125 
	C1309.896606,371.315186 1305.601807,396.409790 1300.348145,421.440887 
	C1293.329224,454.882446 1285.789917,488.220245 1279.221680,521.749023 
	C1274.972412,543.440491 1275.111206,565.087463 1282.230469,586.573425 
	C1296.121826,628.497253 1309.840942,670.491455 1322.705566,712.738525 
	C1337.337646,760.789734 1345.490479,810.244080 1352.246216,859.926331 
	C1353.703491,870.643738 1354.856445,881.402588 1356.137939,892.045776 
	C1359.331543,892.851196 1361.552002,893.535583 1363.820923,893.963928 
	C1383.587769,897.696411 1403.500244,897.214172 1423.398315,895.608887 
	C1432.983765,894.835571 1442.554443,893.583191 1452.044556,892.018799 
	C1459.409790,890.804626 1460.107910,889.233154 1458.660522,881.929993 
	C1457.321533,875.174011 1454.665405,868.500427 1458.020630,861.503479 
	C1458.640991,860.209717 1457.859863,858.252930 1457.753784,856.600342 
	C1456.607666,838.728027 1455.442383,820.856750 1454.330933,802.982239 
	C1452.785767,778.134216 1451.273804,753.284119 1449.763306,728.433960 
	C1448.595459,709.223694 1447.441650,690.012512 1446.300415,670.800598 
	C1445.394531,655.553955 1444.645508,640.296753 1443.597534,625.060059 
	C1441.937012,600.916504 1440.006714,576.791443 1438.342041,552.648132 
	C1437.291138,537.405701 1436.697876,522.130920 1435.579468,506.894135 
	C1433.273682,475.483063 1430.689453,444.092529 1428.345825,412.684113 
	C1426.889526,393.165863 1425.870361,373.613617 1424.288208,354.106415 
	C1421.767578,323.029663 1419.433716,291.925018 1416.118652,260.928711 
	C1412.010986,222.522583 1404.633423,184.707352 1391.395508,148.284698 
	C1384.927002,130.487061 1378.224731,112.732582 1366.543701,97.407509 
	C1354.720947,81.896423 1341.099854,69.640839 1320.003174,69.827751 
	C1318.374268,69.842194 1316.751709,69.147057 1315.106445,68.933350 
	C1293.065186,66.070564 1271.097168,61.553085 1248.730713,66.096710 
	C1244.825684,66.889999 1240.884033,67.750008 1236.923950,67.986717 
	C1202.102783,70.068100 1167.291382,73.203766 1132.442871,73.718330 
	C1082.495239,74.455856 1032.509277,73.724495 982.558716,72.695221 
	C953.345825,72.093277 924.156799,69.895615 894.984070,67.999619 
	C883.402832,67.246925 871.785217,63.640999 860.376404,64.364624 
	C837.208862,65.834084 814.169006,69.339622 791.089294,72.112579 
	C789.574097,72.294624 788.023743,73.173302 786.731750,74.074692 
	C769.973877,85.765945 757.615295,101.123497 749.210022,119.675056 
	C732.218628,157.177307 721.846802,196.577576 716.259216,237.251862 
	C713.597412,256.627533 711.444824,276.089172 709.674805,295.567566 
	C706.943665,325.622284 704.630676,355.716675 702.355896,385.810547 
	C701.179749,401.370422 700.611389,416.975525 699.512329,432.542114 
	C697.900879,455.364594 695.957825,478.163696 694.351990,500.986542 
	C693.256226,516.559448 692.633545,532.165466 691.551514,547.739441 
	C689.920471,571.214661 687.947693,594.666260 686.359863,618.144165 
	C685.239380,634.712219 684.661011,651.316650 683.581970,667.888000 
	C681.944092,693.041016 679.995728,718.173767 678.345276,743.325989 
	C677.280029,759.559448 676.582947,775.816650 675.591919,792.055420 
	C674.358276,812.269104 672.973328,832.473633 671.690002,852.684387 
	C671.031250,863.057617 674.008179,873.578857 670.118347,883.848938 
	C668.642944,887.744263 671.003296,890.226807 674.570435,891.415344 
	C676.760132,892.144775 679.086548,892.524536 681.380310,892.871521 
	C704.514954,896.371338 727.810364,896.595276 751.107300,895.737000 
	C757.969971,895.484253 764.775574,893.683777 771.464661,892.615417 
	C772.340698,889.618469 773.265747,887.454773 773.586487,885.204956 
	C777.748169,856.010071 781.298340,826.716980 786.052490,797.620178 
	C792.216736,759.893799 801.597778,722.889343 813.993164,685.026306 
M988.225708,1819.250488 
	C970.251953,1844.066406 963.356445,1871.408081 967.471497,1902.014771 
	C974.337646,1953.083618 1022.299377,2000.460571 1086.899902,1993.620605 
	C1148.977417,1987.047729 1192.653198,1930.200439 1182.330811,1867.454102 
	C1172.630859,1808.490479 1118.079834,1768.854126 1058.883179,1777.735107 
	C1030.281860,1782.026001 1007.169800,1795.676758 988.225708,1819.250488 
z"/>
<path fill="#D84339" opacity="1.000000" stroke="none" 
	d="
M813.819458,685.806152 
	C801.597778,722.889343 792.216736,759.893799 786.052490,797.620178 
	C781.298340,826.716980 777.748169,856.010071 773.586487,885.204956 
	C773.265747,887.454773 772.340698,889.618469 771.464661,892.615417 
	C764.775574,893.683777 757.969971,895.484253 751.107300,895.737000 
	C727.810364,896.595276 704.514954,896.371338 681.380310,892.871521 
	C679.086548,892.524536 676.760132,892.144775 674.570435,891.415344 
	C671.003296,890.226807 668.642944,887.744263 670.118347,883.848938 
	C674.008179,873.578857 671.031250,863.057617 671.690002,852.684387 
	C672.973328,832.473633 674.358276,812.269104 675.591919,792.055420 
	C676.582947,775.816650 677.280029,759.559448 678.345276,743.325989 
	C679.995728,718.173767 681.944092,693.041016 683.581970,667.888000 
	C684.661011,651.316650 685.239380,634.712219 686.359863,618.144165 
	C687.947693,594.666260 689.920471,571.214661 691.551514,547.739441 
	C692.633545,532.165466 693.256226,516.559448 694.351990,500.986542 
	C695.957825,478.163696 697.900879,455.364594 699.512329,432.542114 
	C700.611389,416.975525 701.179749,401.370422 702.355896,385.810547 
	C704.630676,355.716675 706.943665,325.622284 709.674805,295.567566 
	C711.444824,276.089172 713.597412,256.627533 716.259216,237.251862 
	C721.846802,196.577576 732.218628,157.177307 749.210022,119.675056 
	C757.615295,101.123497 769.973877,85.765945 786.731750,74.074692 
	C788.023743,73.173302 789.574097,72.294624 791.089294,72.112579 
	C814.169006,69.339622 837.208862,65.834084 860.376404,64.364624 
	C871.785217,63.640999 883.402832,67.246925 894.984070,67.999619 
	C924.156799,69.895615 953.345825,72.093277 982.558716,72.695221 
	C1032.509277,73.724495 1082.495239,74.455856 1132.442871,73.718330 
	C1167.291382,73.203766 1202.102783,70.068100 1236.923950,67.986717 
	C1240.884033,67.750008 1244.825684,66.889999 1248.730713,66.096710 
	C1271.097168,61.553085 1293.065186,66.070564 1315.106445,68.933350 
	C1316.751709,69.147057 1318.374268,69.842194 1320.003174,69.827751 
	C1341.099854,69.640839 1354.720947,81.896423 1366.543701,97.407509 
	C1378.224731,112.732582 1384.927002,130.487061 1391.395508,148.284698 
	C1404.633423,184.707352 1412.010986,222.522583 1416.118652,260.928711 
	C1419.433716,291.925018 1421.767578,323.029663 1424.288208,354.106415 
	C1425.870361,373.613617 1426.889526,393.165863 1428.345825,412.684113 
	C1430.689453,444.092529 1433.273682,475.483063 1435.579468,506.894135 
	C1436.697876,522.130920 1437.291138,537.405701 1438.342041,552.648132 
	C1440.006714,576.791443 1441.937012,600.916504 1443.597534,625.060059 
	C1444.645508,640.296753 1445.394531,655.553955 1446.300415,670.800598 
	C1447.441650,690.012512 1448.595459,709.223694 1449.763306,728.433960 
	C1451.273804,753.284119 1452.785767,778.134216 1454.330933,802.982239 
	C1455.442383,820.856750 1456.607666,838.728027 1457.753784,856.600342 
	C1457.859863,858.252930 1458.640991,860.209717 1458.020630,861.503479 
	C1454.665405,868.500427 1457.321533,875.174011 1458.660522,881.929993 
	C1460.107910,889.233154 1459.409790,890.804626 1452.044556,892.018799 
	C1442.554443,893.583191 1432.983765,894.835571 1423.398315,895.608887 
	C1403.500244,897.214172 1383.587769,897.696411 1363.820923,893.963928 
	C1361.552002,893.535583 1359.331543,892.851196 1356.137939,892.045776 
	C1354.856445,881.402588 1353.703491,870.643738 1352.246216,859.926331 
	C1345.490479,810.244080 1337.337646,760.789734 1322.705566,712.738525 
	C1309.840942,670.491455 1296.121826,628.497253 1282.230469,586.573425 
	C1275.111206,565.087463 1274.972412,543.440491 1279.221680,521.749023 
	C1285.789917,488.220245 1293.329224,454.882446 1300.348145,421.440887 
	C1305.601807,396.409790 1309.896606,371.315186 1310.673340,345.578125 
	C1311.015015,334.257629 1309.210815,323.348877 1310.035034,311.817993 
	C1304.177490,311.817993 1299.714722,311.817993 1294.271240,311.817993 
	C1294.778809,318.374146 1295.544678,324.203461 1295.627197,330.042419 
	C1295.966431,354.034119 1293.587158,377.839478 1288.810791,401.299316 
	C1282.652222,431.547943 1275.199097,461.536377 1269.240479,491.821167 
	C1265.406982,511.304810 1262.178345,531.042603 1260.764160,550.815735 
	C1259.930054,562.479492 1263.027344,574.379822 1266.805542,585.855896 
	C1279.680908,624.963318 1292.380005,664.133179 1304.650635,703.434021 
	C1317.549316,744.746765 1326.173584,787.069397 1332.181519,829.881836 
	C1336.004028,857.121826 1339.473999,884.454773 1341.714478,911.859497 
	C1343.472900,933.367371 1344.197632,955.087769 1343.438477,976.645264 
	C1342.119629,1014.100159 1340.465942,1051.577026 1334.152588,1088.680542 
	C1329.344482,1116.937744 1321.885498,1144.499146 1313.360229,1171.759888 
	C1291.263428,1242.417969 1269.115601,1313.065308 1246.211914,1383.464355 
	C1227.491089,1441.006470 1205.804321,1497.495728 1181.389648,1552.869751 
	C1167.031616,1585.434814 1151.905640,1617.741089 1131.049438,1646.821655 
	C1124.111572,1656.495239 1116.035156,1665.444946 1107.776489,1674.050903 
	C1100.362549,1681.776245 1090.859131,1685.518555 1079.859863,1685.208252 
	C1070.534912,1684.945190 1061.189575,1684.923950 1051.865967,1685.209351 
	C1038.719604,1685.611694 1027.955566,1680.633789 1018.657471,1671.693481 
	C1002.135010,1655.806641 990.381958,1636.525635 979.405212,1616.703247 
	C957.127869,1576.473389 938.585632,1534.472778 922.460876,1491.503418 
	C903.196472,1440.167236 884.099182,1388.707520 867.140991,1336.581787 
	C844.954590,1268.385864 824.506104,1199.611816 804.187683,1130.827148 
	C795.905457,1102.789185 791.657227,1073.751343 789.782837,1044.532471 
	C788.019348,1017.042847 786.097473,989.507690 785.948425,961.983337 
	C785.732666,922.153503 787.931335,882.398621 793.938293,842.908020 
	C800.634521,798.885254 808.210083,755.023254 821.054260,712.347290 
	C833.407715,671.301636 846.428162,630.433411 860.282776,589.872253 
	C867.836792,567.757080 869.396179,545.694519 864.905640,523.181824 
	C858.092468,489.024475 850.538879,455.015045 843.347412,420.932770 
	C838.133850,396.224060 833.389343,371.454620 833.661743,346.026184 
	C833.781555,334.841553 833.681885,323.654572 833.681885,311.814270 
	C828.883118,311.814270 824.408813,311.814270 818.847351,311.814270 
	C818.463562,315.629211 817.861267,319.472534 817.723022,323.332458 
	C816.707520,351.682861 819.180908,379.745239 825.213684,407.460663 
	C831.710449,437.307770 838.988037,466.999420 844.777466,496.980469 
	C848.221497,514.816040 849.798157,533.044983 851.561462,551.160645 
	C852.736572,563.232666 849.687073,574.883423 845.942261,586.348877 
	C835.207886,619.213684 824.631592,652.130127 813.819458,685.806152 
z"/>
<path fill="#D8443A" opacity="1.000000" stroke="none" 
	d="
M988.667480,1818.684082 
	C1007.169800,1795.676758 1030.281860,1782.026001 1058.883179,1777.735107 
	C1118.079834,1768.854126 1172.630859,1808.490479 1182.330811,1867.454102 
	C1192.653198,1930.200439 1148.977417,1987.047729 1086.899902,1993.620605 
	C1022.299377,2000.460571 974.337646,1953.083618 967.471497,1902.014771 
	C963.356445,1871.408081 970.251953,1844.066406 988.667480,1818.684082 
z"/>
</svg>